<?xml version="1.0" encoding="UTF-8" standalone="no"?>
<svg
   xmlns:dc="http://purl.org/dc/elements/1.1/"
   xmlns:cc="http://creativecommons.org/ns#"
   xmlns:rdf="http://www.w3.org/1999/02/22-rdf-syntax-ns#"
   xmlns:svg="http://www.w3.org/2000/svg"
   xmlns="http://www.w3.org/2000/svg"
   xmlns:sodipodi="http://sodipodi.sourceforge.net/DTD/sodipodi-0.dtd"
   xmlns:inkscape="http://www.inkscape.org/namespaces/inkscape"
   width="594mm"
   height="420mm"
   viewBox="0 0 1683.7795 1190.5512"
   id="svg3399"
   version="1.1"
   inkscape:version="0.91 r13725"
   sodipodi:docname="TECONET-2016-Completo.svg">
  <metadata
     id="metadata3436">
    <rdf:RDF>
      <cc:Work
         rdf:about="">
        <dc:format>image/svg+xml</dc:format>
        <dc:type
           rdf:resource="http://purl.org/dc/dcmitype/StillImage" />
        <dc:title />
      </cc:Work>
    </rdf:RDF>
  </metadata>
  <defs
     id="defs3434" />
  <sodipodi:namedview
     pagecolor="#ffffff"
     bordercolor="#666666"
     borderopacity="1"
     objecttolerance="10"
     gridtolerance="10"
     guidetolerance="10"
     inkscape:pageopacity="0"
     inkscape:pageshadow="2"
     inkscape:window-width="1280"
     inkscape:window-height="738"
     id="namedview3432"
     showgrid="false"
     inkscape:snap-page="true"
     inkscape:zoom="0.35815344"
     inkscape:cx="1149.3889"
     inkscape:cy="1002.7527"
     inkscape:window-x="-8"
     inkscape:window-y="-8"
     inkscape:window-maximized="1"
     inkscape:current-layer="svg3399"
     units="mm"
     inkscape:snap-grids="true"
     inkscape:snap-center="false"
     inkscape:snap-object-midpoints="false"
     showguides="false" />
  <g
     id="g3421"
     transform="translate(0,-11.2)">
    <g
       inkscape:transform-center-y="-3.895971"
       inkscape:transform-center-x="-6.6745437"
       transform="matrix(1.1830858,0,0,1.1830858,222.41035,216.18701)"
       id="#000000ff">
      <path
         inkscape:connector-curvature="0"
         id="path3402"
         style="opacity:1;fill:#ffaa00"
         d="m 503.36,1.57 c 47.72,-2.31 96.11,12.08 134.73,40.23 6.78,4.89 13.11,10.36 19.42,15.83 3.74,3.3 7.14,7.35 8.31,12.31 2.04,7.98 -1.71,16.94 -8.63,21.32 -5.92,3.88 -14.07,4.43 -20.21,0.77 -4.08,-2.49 -7.57,-5.8 -11.2,-8.88 -26.36,-22.93 -59.96,-37.3 -94.69,-40.87 -46.72,-5.02 -95.14,10.34 -130.48,41.29 -4.52,3.88 -8.91,8.33 -14.72,10.18 -10.02,3.09 -21.67,-3.55 -24.37,-13.62 -2.31,-7.31 0.53,-15.5 6.02,-20.63 C 403.87,24.66 453.13,3.89 503.36,1.57 m -11.75,8.25 c -43.16,4.97 -84.82,23.51 -116.84,52.97 -2.96,2.73 -5.86,6.01 -6.4,10.15 -1.24,7.18 5.37,14.43 12.63,13.84 5.66,-0.2 9.92,-4.41 13.9,-7.95 18.25,-16.48 40.11,-28.9 63.54,-36.33 27.46,-8.85 57.02,-10.31 85.44,-5.94 32.62,5.33 63.84,19.95 88.2,42.38 3.22,2.85 6.4,5.98 10.49,7.54 7.31,2.69 16.28,-3.51 16.15,-11.37 0.35,-5.81 -3.9,-10.38 -8.06,-13.82 C 607.91,23.05 548.75,3.35 491.61,9.82 Z" />
      <path
         inkscape:connector-curvature="0"
         id="path3404"
         style="opacity:1;fill:#ffaa00"
         d="m 499.46,63.71 c 44.09,-4.19 89.77,12.38 120.65,44.18 4.46,4.54 5.68,11.43 4.48,17.52 -2.43,11.98 -17.43,19.5 -28.25,13.18 -5.06,-2.66 -8.94,-6.97 -13.34,-10.52 -16.44,-13.51 -36.89,-22.11 -58.08,-24.23 -30.62,-3.21 -62.59,6.92 -85.23,27.92 -4.43,4.05 -9.47,8.09 -15.64,8.8 -8.84,1.31 -17.71,-4.57 -20.92,-12.71 -2.18,-5.25 -1.54,-11.48 1.36,-16.34 2.88,-4.9 7.28,-8.61 11.47,-12.35 23.2,-20.18 52.88,-32.73 83.5,-35.45 m -0.35,7.48 c -29.23,2.91 -57.3,15.29 -79.49,34.48 -3.89,3.42 -8.2,6.95 -9.89,12.03 -1.89,6.5 2.66,13.85 9.22,15.32 5.51,1.55 10.72,-1.99 14.56,-5.58 15.84,-15.32 36.29,-25.86 58.02,-29.64 8.74,-1.56 17.64,-1.69 26.5,-1.66 27.06,0.06 53.68,11.18 73.46,29.52 3.43,3 6.99,6.23 11.49,7.46 7.49,1.56 15.57,-5.36 14.68,-13.09 -0.55,-6.31 -5.97,-10.43 -10.38,-14.29 C 577.77,80.48 537.91,67.06 499.11,71.19 Z" />
      <path
         inkscape:connector-curvature="0"
         id="path3406"
         style="opacity:1;fill:#ffaa00"
         d="m 501.52,125.77 c 28.34,-4.11 58.29,6.96 77.3,28.34 4.46,4.8 5.85,11.84 4.4,18.12 -2.37,11.27 -16.4,18.54 -26.83,13.35 -5.72,-2.63 -9.69,-7.71 -14.68,-11.38 -17,-12.55 -42.55,-11.99 -58.7,1.78 -4.48,3.84 -8.42,8.83 -14.33,10.49 -9.52,2.94 -20.51,-2.67 -24.16,-11.83 -3.04,-7.06 -0.88,-15.55 4.15,-21.13 13.49,-15.23 32.7,-25.14 52.85,-27.74 m 5.84,6.77 c -15.99,1.64 -31.66,7.53 -44.27,17.59 -5.59,4.2 -11.82,9.35 -12.44,16.83 -0.6,7.75 7.51,14.19 14.93,12.47 5.24,-1.34 8.81,-5.69 12.71,-9.13 6.61,-6.07 15.02,-10.07 23.86,-11.55 14.59,-2.74 30.61,-0.39 42.78,8.49 5.21,3.68 9.07,9.25 15.09,11.75 6.31,2.55 14.17,-1.5 15.96,-8.03 1.83,-5.69 -1.53,-11.48 -5.52,-15.33 -16.74,-15.77 -40.05,-24.78 -63.1,-23.09 z" />
      <path
         inkscape:connector-curvature="0"
         id="path3408"
         style="opacity:1;fill:#ffaa00"
         d="m 508.39,189.5 c 8.61,-3.66 20.07,2.93 20.45,12.47 0.13,20.68 -0.13,41.37 0.11,62.04 0.23,7.32 1.74,15.74 -3.16,21.95 -4.57,6.07 -13.84,7.59 -20.14,3.39 -4.24,-2.62 -7.23,-7.35 -7.09,-12.42 -0.08,-24.32 -0.04,-48.64 -0.02,-72.95 -0.16,-6.29 4.1,-12.16 9.85,-14.48 m 1.97,6.91 c -2.83,1.39 -4.75,4.42 -4.59,7.6 -0.12,23.32 -0.01,46.64 -0.06,69.96 0.01,2.6 0.09,5.46 1.91,7.52 2.22,3.02 6.79,4.36 10.03,2.16 3.59,-2.21 4.74,-6.68 4.58,-10.65 -0.21,-19.35 0.46,-38.71 -0.52,-58.04 -0.14,-4.28 0.14,-8.57 -0.22,-12.84 -0.56,-4.91 -6.81,-8.13 -11.13,-5.71 z" />
      <path
         inkscape:connector-curvature="0"
         id="path3410"
         style="opacity:1;fill:#ffaa00"
         d="m 471.4,213.59 c 7.82,-2.77 17.31,2.73 19.01,10.8 0.68,4.1 0.39,8.63 -2.06,12.13 -3.01,4.43 -8.18,6.46 -12.35,9.54 -11.98,8.75 -21.02,21.64 -24.64,36.07 -3.32,12.56 -2.64,26.12 1.93,38.27 5.72,15.76 17.91,29.02 33.11,36.1 15.25,7.49 33.55,8.09 49.45,2.25 16.15,-5.84 29.78,-18.4 36.72,-34.12 3.79,-9 6.19,-18.74 5.85,-28.55 -0.89,-19.69 -10.89,-39.09 -27.26,-50.29 -4.8,-3.43 -10.87,-6.09 -13.3,-11.86 -3.18,-6.91 0.22,-15.71 6.82,-19.24 4.5,-2.4 10.19,-2.4 14.68,0.04 28.77,14.99 47.99,46.01 49.67,78.28 1.05,19.88 -4.36,40.1 -15.24,56.81 -9.44,14.69 -22.99,26.7 -38.7,34.34 -29.71,14.37 -67.07,12.06 -94.27,-6.88 -14.3,-9.6 -26.21,-22.92 -33.32,-38.67 -10.37,-22.47 -11.62,-49.02 -3.27,-72.33 8.14,-22.67 24.79,-43.01 47.17,-52.69 m 2.95,6.84 c -3.72,1.32 -7.06,3.53 -10.37,5.63 -27.17,18.09 -42.34,52.5 -37.26,84.76 2.87,19.52 12.49,38.01 26.95,51.45 13.04,12.15 29.78,20.42 47.46,22.95 19.75,2.93 40.45,-1.22 57.59,-11.46 14.65,-8.69 26.67,-21.72 34.16,-37.02 8.18,-16.53 10.98,-35.71 7.62,-53.86 -4.75,-26.05 -21.56,-50.09 -45.41,-62.01 -5.5,-3.01 -12.95,3.16 -11,9.1 1.59,4.2 5.93,6.21 9.4,8.61 22.69,14.52 35.46,42.89 31.43,69.5 -2.48,18.29 -12.39,35.43 -27,46.72 -12.48,9.63 -28.15,15.36 -43.99,15 -15.31,0.32 -30.73,-4.53 -42.92,-13.84 -12.64,-9.75 -22.71,-23.42 -26.65,-39.02 -3.75,-15.73 -2.85,-32.81 3.81,-47.65 5.56,-12.53 14.75,-23.46 26.28,-30.9 3.1,-2.15 6.68,-3.99 8.64,-7.35 2.59,-5.23 -3.1,-12.18 -8.74,-10.61 z" />
      <path
         inkscape:connector-curvature="0"
         id="path3412"
         style="opacity:1;fill:#ffffff"
         d="m 4.28,246.03 c 12.14,-0.06 24.29,-0.07 36.43,0 1.07,1.09 2.15,2.18 3.24,3.26 0.07,7.79 0.06,15.59 0,23.39 -1.09,1.08 -2.17,2.17 -3.25,3.27 -12.14,0.07 -24.28,0.06 -36.42,0.01 -1.08,-1.11 -2.16,-2.2 -3.25,-3.28 -0.06,-7.8 -0.06,-15.59 0,-23.38 1.09,-1.09 2.17,-2.18 3.25,-3.27 M 9,253 c -0.01,5.33 -0.01,10.65 0,15.98 8.99,0.01 17.99,0.01 26.98,0 0.01,-5.33 0.01,-10.65 0,-15.98 -8.99,-0.01 -17.99,-0.01 -26.98,0 z" />
      <path
         inkscape:connector-curvature="0"
         id="path3414"
         style="opacity:1;fill:#ffffff"
         d="m 63.96,248.88 c 3.01,-1.81 6.43,-3.04 9.98,-2.92 13.68,0.05 27.36,0.02 41.05,0.03 0,10 0,20 0,30 -11,0.12 -22.01,-0.23 -33.01,0.15 -1.52,-0.15 -2.06,1.58 -1.9,2.8 -0.26,22.24 0.04,44.5 -0.13,66.75 -1.1,1.08 -2.2,2.16 -3.28,3.26 -8.79,0.06 -17.58,0.07 -26.37,0 -1.08,-1.1 -2.17,-2.19 -3.27,-3.27 -0.07,-22.91 -0.07,-45.82 -0.03,-68.73 0.05,-3.59 -0.3,-7.35 1.19,-10.72 2.99,-7.42 8.97,-13.33 15.77,-17.35 m -8.98,28.08 c 0.01,21.67 0,43.35 0.02,65.02 5.66,0.01 11.32,0.01 16.98,0 0.03,-21.68 -0.05,-43.36 0.04,-65.04 -0.15,-3.78 2.88,-7.97 6.89,-7.91 9.35,-0.15 18.71,0.02 28.07,-0.05 0.01,-5.33 0.01,-10.65 0,-15.98 -8.35,-0.02 -16.71,0.02 -25.06,-0.05 -13.6,-1.44 -27.06,10.22 -26.94,24.01 z" />
      <path
         inkscape:connector-curvature="0"
         id="path3416"
         style="opacity:1;fill:#ffffff"
         d="m 151.94,247.77 c 4.23,-2.62 9.32,-1.7 14.03,-1.79 26.02,0.01 52.04,0.01 78.06,-0.01 2.22,-0.21 4.15,0.93 6.01,1.96 -0.07,8.75 -0.09,17.5 0.01,26.25 -4.22,2.66 -9.35,1.72 -14.06,1.82 -26.01,-0.01 -52.01,-0.01 -78.02,0.01 -2.23,0.22 -4.16,-0.93 -6.02,-1.96 0.06,-8.76 0.07,-17.52 -0.01,-26.28 M 160,253 c -0.01,5.33 -0.01,10.66 0,15.98 27.33,0.01 54.65,0.01 81.98,0 0.01,-5.32 0.01,-10.65 0,-15.98 -27.33,-0.01 -54.65,-0.01 -81.98,0 z" />
      <path
         inkscape:connector-curvature="0"
         id="path3418"
         style="opacity:1;fill:#ffffff"
         d="m 305.65,259.63 c 9.8,-8.88 23.08,-14.43 36.41,-13.65 11.32,-0.02 22.64,0.01 33.96,-0.01 2.22,-0.21 4.15,0.95 6.02,1.96 -0.09,9.35 -0.03,18.71 -0.05,28.06 -13.68,0.06 -27.36,-0.1 -41.03,0.07 -11.73,0.38 -20.27,12.86 -18.71,24.02 0.97,9.85 9.48,19.12 19.75,18.91 13.33,0.02 26.66,-0.02 39.99,0 0.02,9.35 -0.04,18.7 0.05,28.05 -1.87,0.99 -3.78,2.18 -5.99,1.97 -14.05,-0.16 -28.1,0.26 -42.13,-0.23 -11.56,-1.82 -22.76,-7.27 -30.73,-15.94 -8.31,-9.55 -13.73,-22.03 -13.3,-34.83 -0.61,-14.28 5.61,-28.47 15.76,-38.38 m 10.33,2.3 c -8.46,6.69 -15.16,16.23 -16.92,27.02 -2.77,12.74 0.77,26.65 9.25,36.56 7.89,10.38 20.77,16.01 33.63,16.42 10.68,0.16 21.36,0 32.04,0.05 0.01,-5.33 0.01,-10.65 0,-15.98 -11.67,-0.06 -23.35,0.08 -35.02,-0.05 -14.43,-0.59 -26.39,-14.66 -25.06,-28.98 -0.88,-14.33 11.63,-27.96 26.03,-27.98 11.35,-0.04 22.7,0.02 34.05,-0.01 0.01,-5.32 0.01,-10.65 0,-15.98 -9.98,0 -19.97,-0.01 -29.96,-0.03 -9.93,0.19 -20.14,2.69 -28.04,8.96 z" />
      <path
         inkscape:connector-curvature="0"
         id="path3420"
         style="opacity:1;fill:#ffffff"
         d="m 643.26,246.02 c 4.83,-0.06 9.67,-0.05 14.5,-0.02 9.96,10.8 19.69,21.8 29.58,32.65 2.95,3.09 5.94,6.2 8.02,9.98 1.13,-0.6 2.15,-1.63 3.52,-1.58 5.69,-0.25 11.4,0.02 17.1,-0.06 0.03,-12.57 -0.05,-25.13 0.04,-37.69 1.08,-1.09 2.16,-2.19 3.23,-3.29 8.49,-0.04 16.97,-0.05 25.46,0 1.07,1.1 2.15,2.2 3.24,3.3 0.07,32.12 0.06,64.24 0,96.36 -1.1,1.09 -2.18,2.19 -3.24,3.3 -4.83,0.03 -9.66,0.03 -14.49,0.02 -8.97,-10.67 -18.48,-20.88 -27.56,-31.45 -3.21,-3.55 -6.82,-6.84 -9,-11.17 -1.18,0.55 -2.21,1.57 -3.56,1.56 -5.7,0.24 -11.4,-0.03 -17.1,0.06 -0.04,12.56 0.04,25.12 -0.05,37.68 -1.11,1.09 -2.21,2.18 -3.29,3.28 -8.78,0.06 -17.57,0.06 -26.35,0 -1.09,-1.09 -2.19,-2.18 -3.28,-3.26 -0.07,-32.13 -0.07,-64.27 0,-96.41 1.08,-1.08 2.16,-2.16 3.23,-3.26 m 4.74,6.93 c -0.01,29.68 -0.01,59.36 0,89.03 5.66,0.01 11.32,0.01 16.98,0 0.01,-13.66 0.01,-27.32 0.02,-40.99 7.28,0.01 14.57,-0.02 21.86,0.01 -0.16,-4.03 1.42,-8.9 -1.57,-12.24 -10.51,-11.93 -21.2,-23.7 -31.63,-35.7 -1.89,-0.03 -3.78,-0.07 -5.66,-0.11 m 76,0.05 c -0.01,13.66 -0.01,27.32 -0.01,40.99 -7.3,0 -14.6,0.01 -21.89,0.01 0.13,4.05 -1.4,8.93 1.62,12.28 9.86,11.45 19.85,22.8 29.67,34.29 1.49,2.11 4.39,1.19 6.59,1.53 0.01,-29.7 0,-59.4 0.01,-89.1 -5.34,-0.01 -10.67,-0.01 -15.99,0 z" />
      <path
         inkscape:connector-curvature="0"
         id="path3422"
         style="opacity:1;fill:#ffffff"
         d="m 786.95,247.91 c 1.86,-1.05 3.81,-2.15 6.05,-1.94 28.7,0.03 57.41,0.02 86.11,0 2.18,-0.2 4.08,0.96 5.93,1.95 -0.08,8.71 -0.08,17.42 0,26.12 -1.89,1.03 -3.84,2.19 -6.07,1.97 -28.68,-0.03 -57.35,-0.03 -86.03,0 -2.22,0.21 -4.14,-0.93 -5.99,-1.95 0.06,-8.72 0.06,-17.43 0,-26.15 M 795,253 c -0.02,5.33 -0.02,10.66 0,15.98 27.33,0.01 54.65,0.01 81.98,0 0,-5.32 0.01,-10.65 0,-15.98 -27.33,-0.01 -54.65,-0.01 -81.98,0 z" />
      <path
         inkscape:connector-curvature="0"
         id="path3424"
         style="opacity:1;fill:#ffffff"
         d="m 927.26,246.03 c 12.15,-0.06 24.29,-0.07 36.44,0 1.07,1.1 2.15,2.19 3.25,3.28 0.07,7.78 0.06,15.57 0,23.35 -1.1,1.09 -2.19,2.19 -3.26,3.29 -12.14,0.07 -24.28,0.07 -36.42,0 -1.08,-1.09 -2.16,-2.17 -3.24,-3.24 -0.07,-7.81 -0.07,-15.62 0,-23.43 1.07,-1.08 2.15,-2.16 3.23,-3.25 M 932,253 c -0.02,5.32 -0.02,10.65 0,15.98 8.99,0.01 17.99,0.01 26.98,0 0,-5.33 0,-10.65 0,-15.98 -8.99,-0.01 -17.99,-0.01 -26.98,0 z" />
      <path
         inkscape:connector-curvature="0"
         id="path3426"
         style="opacity:1;fill:#ffffff"
         d="m 974.33,260.38 c 4.96,-6.79 12.1,-12.98 20.62,-14.3 14.34,-0.27 28.7,0.01 43.05,-0.09 l 0,29.99 c -11.32,0.2 -22.67,-0.35 -33.97,0.23 -1.9,2 -0.74,5.28 -1.08,7.81 0.08,20.55 0.06,41.11 0,61.66 -1.12,1.08 -2.21,2.17 -3.29,3.27 -8.79,0.06 -17.57,0.06 -26.36,0.01 -1.09,-1.11 -2.18,-2.2 -3.27,-3.28 -0.07,-24.23 -0.07,-48.47 -0.03,-72.7 -0.13,-4.58 1.8,-8.9 4.33,-12.6 m 3.66,16.61 c 0.01,21.66 0.01,43.33 0.01,64.99 5.66,0.01 11.32,0.01 16.98,0 0.03,-21.66 -0.05,-43.33 0.04,-65 -0.17,-3.77 2.83,-7.97 6.84,-7.95 9.37,-0.15 18.75,0.03 28.12,-0.05 0,-5.33 0,-10.65 0,-15.98 -10.34,0.11 -20.7,-0.26 -31.02,0.17 -11.29,1.67 -21.19,12.17 -20.97,23.82 z" />
      <path
         inkscape:connector-curvature="0"
         id="path3428"
         style="opacity:1;fill:#ffffff"
         d="m 151.93,283.8 c 3.9,-2.5 8.62,-1.81 13.01,-1.83 25.17,0.06 50.35,-0.04 75.53,0.05 0.3,8.09 -3.51,15.73 -8.76,21.66 -6.27,5.99 -14.98,9.55 -23.68,9.35 -7.68,-0.04 -15.36,-0.05 -23.04,-0.03 0,1.99 0,3.98 0.01,5.98 20.59,0.02 41.18,-0.02 61.77,0.02 1.05,1.1 2.11,2.19 3.18,3.28 0.1,8.25 -0.02,16.51 0.09,24.76 -1.87,0.97 -3.77,2.14 -5.97,1.96 -26,-0.02 -52,0 -78.01,0 -4.73,-0.11 -9.87,0.84 -14.12,-1.81 0.08,-21.13 0.09,-42.26 -0.01,-63.39 M 160,289 c -0.01,17.66 -0.01,35.32 0,52.99 27.33,0 54.65,0 81.98,-0.01 0.01,-5.33 0.01,-10.65 0,-15.98 -22,-0.01 -43.99,-0.01 -65.99,-0.01 0,-6.67 0,-13.33 0,-20 10.58,-0.18 21.19,0.35 31.76,-0.26 9.74,-0.63 18.67,-7.27 21.66,-16.63 -23.14,-0.24 -46.28,-0.05 -69.41,-0.1 z" />
      <path
         inkscape:connector-curvature="0"
         id="path3430"
         style="opacity:1;fill:#ffffff"
         d="m 786.95,283.92 c 1.86,-1.04 3.81,-2.17 6.05,-1.95 27.49,0.06 54.98,-0.02 82.47,0.05 0.28,8.33 -3.7,16.24 -9.29,22.19 -6.27,5.62 -14.67,9.03 -23.13,8.82 -7.69,-0.04 -15.37,-0.05 -23.06,-0.03 0,1.99 0,3.98 0.01,5.98 20.58,0.02 41.17,-0.02 61.76,0.02 1.05,1.11 2.11,2.2 3.2,3.29 0.09,8.25 -0.04,16.51 0.07,24.76 -1.89,0.98 -3.83,2.14 -6.05,1.95 -28.67,-0.02 -57.34,0 -86.01,0.01 -2.18,0.07 -4.14,-0.9 -6.03,-1.81 0.08,-21.09 0.07,-42.19 0.01,-63.28 M 795,289 c -0.01,17.66 -0.01,35.32 0,52.99 27.33,0 54.65,0 81.98,-0.01 0.01,-5.32 0.01,-10.65 0,-15.98 -22,-0.01 -43.99,-0.01 -65.99,-0.01 -0.01,-6.67 -0.01,-13.33 0,-20 10.96,-0.27 21.98,0.55 32.91,-0.43 9.34,-0.91 17.62,-7.53 20.5,-16.46 -23.13,-0.24 -46.27,-0.05 -69.4,-0.1 z" />
    </g>
    <g
       transform="matrix(1.0070561,0,0,1.0074074,250.99533,736.59157)"
       id="g3490">
      <g
         id="#ffffffff" />
      <g
         id="#000000ff-2">
        <path
           inkscape:connector-curvature="0"
           d="m 17.11,9.1 c 12.25,-0.17 24.53,-0.18 36.78,0.01 0.22,3.86 0.34,7.76 -0.08,11.61 -1.19,2.52 -4.12,2.69 -6.52,2.14 -2.21,-1.09 -2.2,-3.67 -2.6,-5.75 -1.52,-0.2 -3.06,-0.19 -4.59,-0.07 -0.33,14.95 0.11,29.92 -0.18,44.87 -0.56,4.35 -8.28,4.34 -8.85,0 -0.28,-14.95 0.16,-29.93 -0.18,-44.88 -1.52,-0.11 -3.06,-0.12 -4.58,0.09 -0.4,2.08 -0.4,4.66 -2.6,5.75 -2.4,0.54 -5.33,0.38 -6.52,-2.15 -0.42,-3.85 -0.3,-7.75 -0.08,-11.62 z"
           style="opacity:1;fill:#ffaa00"
           id="path3442" />
        <path
           inkscape:connector-curvature="0"
           d="m 285.27,9.18 c 4.56,-0.42 9.17,-0.19 13.74,-0.16 2.17,-0.29 4.25,1.8 3.98,3.97 0.13,14.63 -0.17,29.28 0.11,43.91 3.58,0.69 8.56,-1.46 10.78,2.41 0.98,2.62 -0.88,5.99 -3.87,5.68 -7.67,0.04 -15.35,0.04 -23.02,0 -2.99,0.32 -4.85,-3.07 -3.87,-5.69 2.22,-3.87 7.2,-1.71 10.78,-2.4 0.17,-13.26 0.18,-26.54 0,-39.8 -3.58,-0.69 -8.57,1.47 -10.78,-2.41 -0.66,-2.15 0.1,-4.46 2.15,-5.51 z"
           style="opacity:1;fill:#ffaa00"
           id="path3444" />
        <path
           inkscape:connector-curvature="0"
           d="m 464.33,9.32 c 2.78,-1.31 7.02,0.2 6.73,3.69 0.34,3.2 -3.43,4.2 -5.65,5.42 -4.11,1.55 -7.92,4.34 -12.38,4.63 -3.89,0.48 -5.82,-5.61 -2.33,-7.42 4.32,-2.53 9.02,-4.39 13.63,-6.32 z"
           style="opacity:1;fill:#ffaa00"
           id="path3446" />
        <path
           inkscape:connector-curvature="0"
           d="m 609.66,15.66 c 2.96,-2.79 5.9,-6.54 10.31,-6.71 5.13,-0.86 10.4,3.8 10.05,9 -0.12,7.65 0.18,15.31 -0.14,22.94 -0.43,4.92 -4.79,7.84 -8.01,11 -1.58,1.31 -0.14,3.38 0.35,4.87 2.01,0.42 4.31,-0.14 6.15,0.87 2.95,1.69 1.96,6.96 -1.45,7.29 -3.57,0.21 -7.16,0.28 -10.71,-0.08 -1.45,-1.13 -1.69,-3.16 -2.61,-4.67 -2.83,1.68 -5.07,4.84 -8.63,4.88 -5.14,0.84 -10.31,-3.82 -9.99,-9.01 -0.05,-5.67 0.1,-11.35 -0.01,-17.03 0.01,-3.47 -0.34,-7.27 1.73,-10.29 3.53,-5.07 8.74,-8.61 12.96,-13.06 m 5.13,7.12 c -2.97,3.04 -6.67,5.34 -9.27,8.73 -1.77,2.45 -1.51,5.62 -1.56,8.48 0.12,5.39 -0.15,10.79 0.17,16.17 2.4,-1.13 4.43,-3.03 5.77,-5.32 -0.02,-3.26 -2.47,-6.21 -1.8,-9.53 1.27,-2.52 4.17,-2.73 6.63,-2.2 1.63,1.26 2.28,3.27 3.29,4.99 1.41,-1.75 3.04,-3.64 2.94,-6.04 0.07,-6.73 0.16,-13.48 -0.08,-20.22 -2.52,0.95 -4.18,3.17 -6.09,4.94 z"
           style="opacity:1;fill:#ffaa00"
           id="path3448" />
        <path
           inkscape:connector-curvature="0"
           d="m 816.15,15.28 c 1.69,-3.74 5.6,-6.5 9.78,-6.29 5.26,0.08 10.54,-0.26 15.79,0.19 3.14,1.44 3.15,6.2 0,7.64 -5.43,0.71 -10.97,-0.47 -16.36,0.56 -3.3,5.19 -5.82,10.86 -8.6,16.33 -1.58,2.8 -0.23,5.94 1.05,8.55 1.92,3.77 3.75,7.57 5.69,11.32 0.73,1.18 1.32,2.66 2.69,3.23 4.88,0.58 9.82,-0.13 14.72,0.26 2.79,0.28 4.17,4.13 2.49,6.26 -1.91,2.73 -5.62,1.37 -8.41,1.7 -4.79,-0.39 -10.06,1.07 -14.42,-1.49 -3.83,-1.98 -5.27,-6.33 -7.28,-9.85 -3.05,-6.44 -7.94,-12.98 -6.05,-20.53 2.08,-6.36 6.01,-11.89 8.91,-17.88 z"
           style="opacity:1;fill:#ffaa00"
           id="path3450" />
        <path
           inkscape:connector-curvature="0"
           d="m 1081.29,12.14 c 2.4,-0.56 5.31,-0.37 6.53,2.13 0.4,3.2 0.01,6.43 0.27,9.63 4.87,0.42 9.78,-0.29 14.64,0.28 3.13,1.43 3.14,6.22 -0.01,7.64 -4.86,0.57 -9.76,-0.14 -14.62,0.28 -0.31,4.96 0,9.93 -0.12,14.89 0.05,3.11 -0.34,6.34 0.69,9.33 2.85,0.99 6.02,0.96 8.97,0.35 1.69,-1.97 2.14,-5.76 5.4,-5.67 2.26,-0.42 4.68,0.1 5.82,2.3 1.26,4.51 -2.17,8.62 -5.81,10.78 -3.81,1.59 -8.09,0.77 -12.09,0.96 -4.43,0.35 -8.95,-2.04 -10.93,-6.04 -1.47,-2.77 -0.97,-6.01 -1.06,-9.01 -0.05,-5.92 0.24,-11.86 -0.09,-17.77 -2.79,-0.03 -7.29,-0.35 -6.94,-4.21 -0.34,-3.87 4.14,-4.2 6.95,-4.23 0.83,-3.83 -1.66,-9.2 2.4,-11.64 z"
           style="opacity:1;fill:#ffaa00"
           id="path3452" />
        <path
           inkscape:connector-curvature="0"
           d="m 81.27,24.26 c 5.11,-0.49 10.33,-0.47 15.45,-0.01 3.44,1.65 6.24,4.58 8.33,7.72 1.69,4.46 0.81,9.39 0.94,14.05 0.29,2.18 -1.79,4.26 -3.97,3.97 -7.36,0.19 -14.74,-0.25 -22.1,0.14 -0.2,3.15 2.58,5.58 5.25,6.68 6.17,0.66 12.4,-0.27 18.57,0.37 3.16,1.4 3.12,6.23 -0.01,7.64 C 97.49,65.3 91.21,64.85 84.96,65.04 78.71,65.41 73.25,60.34 71.27,54.73 70.61,49.18 71.17,43.54 70.96,37.95 70.53,31.66 75.65,26.24 81.27,24.26 m 2.97,8.01 c -3.96,1.46 -4.94,5.87 -4.19,9.63 5.63,0.2 11.28,0.2 16.91,0 0.19,-2.54 0.38,-5.43 -1.43,-7.49 -2.71,-3.31 -7.54,-2.63 -11.29,-2.14 z"
           style="opacity:1;fill:#ffaa00"
           id="path3454" />
        <path
           inkscape:connector-curvature="0"
           d="m 137.36,24.38 c 6.49,-0.85 13.11,-0.22 19.65,-0.37 4.34,-0.47 5.64,6.22 1.73,7.81 -5.81,0.67 -11.69,-0.37 -17.48,0.45 -3.08,1.76 -5.76,4.29 -7.95,7.06 -0.56,3.38 -0.59,6.91 -0.01,10.29 2.28,2.72 4.9,5.28 8.02,7 5.73,1.07 11.63,-0.18 17.4,0.56 3.15,1.44 3.14,6.19 0,7.64 -6.22,0.42 -12.49,0.15 -18.73,0.15 -3.94,-0.02 -6.69,-3.16 -9.47,-5.51 -2.65,-2.32 -6.11,-4.58 -6.4,-8.45 -0.26,-4.33 -0.26,-8.68 -0.01,-13.01 0.37,-4.1 3.96,-6.67 6.84,-9.12 2.05,-1.59 3.88,-3.66 6.41,-4.5 z"
           style="opacity:1;fill:#ffaa00"
           id="path3456" />
        <path
           inkscape:connector-curvature="0"
           d="m 177.01,27.98 c -0.31,-2.64 2.5,-4.57 4.95,-4.05 2.8,-0.44 3.73,2.61 4.46,4.67 2.76,-1.7 5.3,-4.14 8.68,-4.48 3.19,-0.26 6.45,-0.4 9.62,0.15 3.56,1.49 6.82,4.73 7.16,8.75 0.41,9.9 1.81,19.79 0.94,29.71 -1.6,3.24 -7.04,3.3 -8.6,0 -0.54,-4.57 -0.4,-9.19 -1.04,-13.75 -0.73,-5.41 0.67,-11.03 -0.84,-16.31 -3.14,-1.58 -6.55,-0.29 -9.34,1.36 -2.3,1.34 -4.98,2.23 -6.86,4.16 -0.48,7.89 0.16,15.82 -0.22,23.72 -0.5,3.74 -6.38,4.36 -8.29,1.43 -1,-1.17 -0.47,-2.9 -0.67,-4.3 0.11,-10.35 -0.02,-20.7 0.05,-31.06 z"
           style="opacity:1;fill:#ffaa00"
           id="path3458" />
        <path
           inkscape:connector-curvature="0"
           d="m 239.27,24.27 c 6.48,-0.14 14.26,-1.98 19.55,2.87 2.84,2.45 5.31,5.89 5.2,9.8 0.05,4.37 -0.06,8.73 0.02,13.09 0.93,8.11 -6.93,15.89 -15.01,15.02 -4.15,-0.24 -8.74,0.81 -12.46,-1.53 -3.54,-2.09 -6.58,-5.51 -7.45,-9.61 -0.35,-5.31 -0.03,-10.64 -0.16,-15.96 -0.4,-6.25 4.65,-11.76 10.31,-13.68 m 3.08,8.1 c -2,1.23 -4.28,3.07 -4.29,5.64 -0.13,4.62 -0.26,9.27 0.1,13.89 0.91,3.83 5.15,5.79 8.86,5.19 3.98,0.54 8.25,-2.94 7.98,-7.05 -0.02,-4.6 0.29,-9.24 -0.26,-13.81 -2.09,-4.69 -8.05,-4.96 -12.39,-3.86 z"
           style="opacity:1;fill:#ffaa00"
           id="path3460" />
        <path
           inkscape:connector-curvature="0"
           d="m 343.27,24.27 c 6.48,-0.14 14.25,-1.98 19.56,2.87 2.83,2.45 5.3,5.89 5.18,9.8 0.06,4.36 -0.05,8.73 0.03,13.09 0.94,8.12 -6.93,15.89 -15.02,15.02 -4.14,-0.24 -8.73,0.82 -12.45,-1.53 -3.54,-2.09 -6.58,-5.51 -7.45,-9.61 -0.35,-5.31 -0.02,-10.64 -0.16,-15.96 -0.4,-6.25 4.65,-11.76 10.31,-13.68 m 3.09,8.1 c -2.01,1.23 -4.3,3.06 -4.3,5.64 -0.13,4.62 -0.25,9.27 0.09,13.89 0.92,3.82 5.16,5.8 8.87,5.19 3.99,0.54 8.24,-2.94 7.98,-7.05 -0.03,-4.6 0.29,-9.24 -0.26,-13.82 -2.09,-4.68 -8.04,-4.94 -12.38,-3.85 z"
           style="opacity:1;fill:#ffaa00"
           id="path3462" />
        <path
           inkscape:connector-curvature="0"
           d="m 394.36,24.45 c 5.47,-1 11.48,-1.09 16.33,2.03 1.56,-1.21 3.05,-3.01 5.27,-2.55 2.19,-0.24 4.29,1.87 4.03,4.05 0.04,13.03 -0.01,26.06 0.02,39.08 0.22,6.01 -5.09,10.7 -10.28,12.66 -6.18,0.62 -12.45,0.25 -18.66,0.21 -3.82,-0.41 -4.3,-6.35 -0.82,-7.76 5.18,-0.61 10.43,0.25 15.61,-0.32 2.04,-0.61 3.95,-2.15 4.93,-4.05 0.41,-2.85 0.27,-5.74 0.2,-8.6 -4.78,3.55 -11.05,3.33 -16.63,2.34 -4.1,-1.88 -7.84,-5.38 -9.11,-9.8 -0.57,-4.9 -0.19,-9.86 -0.25,-14.78 -0.27,-5.74 4.57,-10.25 9.36,-12.51 m 3.95,7.91 c -2.2,1.02 -4.45,2.94 -4.26,5.61 -0.11,3.92 -0.33,7.89 0.22,11.79 1.06,2.18 3.09,4.42 5.73,4.3 4.53,0.55 7.78,-3.51 10.4,-6.61 1,-2.76 1,-6.15 0,-8.9 -3,-3.4 -6.97,-8.23 -12.09,-6.19 z"
           style="opacity:1;fill:#ffaa00"
           id="path3464" />
        <path
           inkscape:connector-curvature="0"
           d="m 441.28,24.18 c 4.55,-0.42 9.15,-0.18 13.73,-0.16 2.17,-0.29 4.25,1.8 3.98,3.97 0.16,9.63 -0.2,19.28 0.11,28.91 3.58,0.69 8.56,-1.47 10.79,2.41 0.96,2.61 -0.88,5.99 -3.87,5.68 -7.68,0.04 -15.36,0.04 -23.04,0 -2.98,0.32 -4.84,-3.07 -3.86,-5.68 2.21,-3.88 7.2,-1.71 10.78,-2.41 0.18,-8.26 0.18,-16.54 0,-24.8 -3.58,-0.7 -8.57,1.47 -10.78,-2.41 -0.67,-2.16 0.09,-4.47 2.16,-5.51 z"
           style="opacity:1;fill:#ffaa00"
           id="path3466" />
        <path
           inkscape:connector-curvature="0"
           d="m 495.6,25.67 c 1.9,-2.73 5.61,-1.37 8.4,-1.69 5.32,0.47 11.31,-1.34 16.05,1.84 2.76,1.75 4.67,4.89 4.91,8.16 0.29,9.58 1.75,19.15 0.85,28.74 -1.78,3.63 -6.14,2.32 -8.89,0.72 -2.87,1.05 -5.81,1.94 -8.91,1.6 -5.46,-0.38 -11.84,1.34 -16.32,-2.72 -4.3,-3.4 -4.05,-9.33 -3.58,-14.24 0.63,-4.53 4.58,-8.13 8.98,-8.96 6.28,-0.47 12.6,0.21 18.89,-0.23 0.07,-2.31 0.62,-5.76 -2.2,-6.69 -5.48,-0.68 -11.03,0.27 -16.5,-0.38 -2.25,-1.08 -3.19,-4.15 -1.68,-6.15 m 1.43,24.38 c -0.15,2.33 -0.66,5.8 2.21,6.7 5.85,0.9 12.12,0.33 17.23,-2.87 -0.15,-2.11 -0.43,-4.24 -1.14,-6.25 -4.66,-1.25 -9.61,-0.5 -14.38,-0.61 -1.85,-0.24 -3.91,1.04 -3.92,3.03 z"
           style="opacity:1;fill:#ffaa00"
           id="path3468" />
        <path
           inkscape:connector-curvature="0"
           d="m 647.07,27.09 c 0.55,-4.34 8.27,-4.36 8.84,0 0.37,8.33 1.44,16.62 1.08,24.97 -0.43,2.52 1.16,5.36 4.02,4.99 5.13,-0.27 9.63,-3.56 13.81,-6.3 0.57,-7.86 -0.14,-15.78 0.26,-23.66 0.51,-3.72 6.37,-4.37 8.29,-1.42 1,1.16 0.46,2.89 0.67,4.29 -0.11,10.35 0.02,20.7 -0.05,31.05 0.3,2.65 -2.5,4.58 -4.96,4.06 -2.8,0.45 -3.71,-2.58 -4.42,-4.63 -3.34,1.87 -6.53,4.62 -10.56,4.6 -4.67,0.28 -10.16,0.28 -13.36,-3.75 -3.65,-3.88 -2.52,-9.49 -3.05,-14.3 -0.85,-6.6 -0.78,-13.27 -0.57,-19.9 z"
           style="opacity:1;fill:#ffaa00"
           id="path3470" />
        <path
           inkscape:connector-curvature="0"
           d="m 708.58,25.46 c 3.38,-2.23 7.6,-1.29 11.41,-1.51 3.12,0.14 6.76,-0.59 9.27,1.79 2.82,2.51 6.32,5.19 6.62,9.27 0.26,3.66 0.2,7.34 0.11,11.01 0.28,2.18 -1.79,4.26 -3.97,3.97 -7.37,0.19 -14.74,-0.25 -22.1,0.14 -0.2,3.16 2.58,5.57 5.25,6.68 5.89,0.61 11.84,-0.15 17.76,0.26 3.11,0.26 4.32,4.89 1.96,6.82 -1.15,1.52 -3.22,0.99 -4.85,1.15 -5.98,-0.17 -11.98,0.21 -17.94,-0.17 -5.01,-1.16 -9.17,-5.34 -10.84,-10.14 -0.65,-5.56 -0.09,-11.19 -0.3,-16.77 -0.45,-5.31 3.3,-9.91 7.62,-12.5 m 2.82,8.93 c -2.04,1.95 -1.41,5 -1.35,7.51 5.63,0.2 11.28,0.2 16.92,0 0.78,-3.92 -0.7,-8.86 -5.07,-9.76 -3.55,-0.3 -8.03,-0.97 -10.5,2.25 z"
           style="opacity:1;fill:#ffaa00"
           id="path3472" />
        <path
           inkscape:connector-curvature="0"
           d="m 870.26,24.27 c 6.49,-0.14 14.26,-1.98 19.56,2.87 2.84,2.45 5.31,5.89 5.19,9.81 0.04,4.69 -0.03,9.39 0.03,14.09 0.41,6.28 -4.67,11.73 -10.32,13.68 -3.55,0.58 -7.18,0.27 -10.76,0.32 -6.26,0.37 -11.77,-4.65 -13.68,-10.32 -0.7,-5.55 -0.1,-11.18 -0.32,-16.76 -0.4,-6.26 4.65,-11.77 10.3,-13.69 m 3.1,8.1 c -2.01,1.24 -4.29,3.07 -4.3,5.64 -0.13,4.62 -0.26,9.27 0.09,13.88 2,7.29 14.64,7.17 16.7,-0.02 0.26,-5.2 0.4,-10.46 -0.11,-15.64 -2.09,-4.69 -8.05,-4.96 -12.38,-3.86 z"
           style="opacity:1;fill:#ffaa00"
           id="path3474" />
        <path
           inkscape:connector-curvature="0"
           d="m 913.01,27.99 c -0.3,-2.65 2.48,-4.6 4.95,-4.06 2.79,-0.44 3.72,2.61 4.46,4.67 2.98,-1.89 5.83,-4.52 9.58,-4.57 4.43,-0.2 9.76,-0.84 12.9,3.07 4.08,3.47 2.9,9.25 3.39,13.96 0.82,7.19 1,14.46 0.53,21.67 -1.61,3.24 -7.05,3.29 -8.61,-0.01 -0.53,-4.56 -0.4,-9.18 -1.03,-13.74 -0.73,-5.41 0.67,-11.03 -0.85,-16.31 -2.86,-1.41 -6.09,-0.55 -8.67,1.02 -2.52,1.46 -5.44,2.42 -7.51,4.5 -0.5,7.9 0.14,15.82 -0.22,23.72 -0.51,3.73 -6.39,4.36 -8.3,1.43 -1.01,-1.17 -0.49,-2.9 -0.67,-4.3 0.11,-10.35 -0.03,-20.7 0.05,-31.05 z"
           style="opacity:1;fill:#ffaa00"
           id="path3476" />
        <path
           inkscape:connector-curvature="0"
           d="m 973.58,25.46 c 3.39,-2.23 7.61,-1.29 11.42,-1.51 3.12,0.14 6.75,-0.59 9.26,1.79 2.82,2.51 6.32,5.19 6.62,9.28 0.26,3.65 0.2,7.33 0.11,11 0.28,2.18 -1.8,4.26 -3.97,3.97 -7.37,0.2 -14.74,-0.25 -22.1,0.14 -0.2,3.15 2.58,5.58 5.25,6.68 6.16,0.67 12.4,-0.27 18.57,0.36 3.17,1.41 3.1,6.23 -0.01,7.66 -6.24,0.46 -12.52,0.02 -18.77,0.21 -6.25,0.38 -11.71,-4.7 -13.69,-10.31 -0.67,-5.55 -0.1,-11.19 -0.31,-16.77 -0.45,-5.31 3.3,-9.91 7.62,-12.5 m 5.66,6.81 c -3.96,1.46 -4.94,5.87 -4.19,9.63 5.62,0.2 11.28,0.2 16.91,0 0.18,-2.55 0.37,-5.43 -1.43,-7.49 -2.71,-3.32 -7.54,-2.63 -11.29,-2.14 z"
           style="opacity:1;fill:#ffaa00"
           id="path3478" />
        <path
           inkscape:connector-curvature="0"
           d="m 1032.36,24.38 c 6.49,-0.85 13.11,-0.22 19.66,-0.37 4.33,-0.47 5.62,6.22 1.71,7.81 -4.58,0.51 -9.19,0.02 -13.78,0.14 -5.12,-0.6 -8.6,3.99 -11.64,7.37 -0.57,3.38 -0.59,6.91 -0.01,10.29 2.28,2.72 4.9,5.28 8.03,7 5.72,1.06 11.62,-0.18 17.4,0.56 3.12,1.44 3.14,6.2 -0.01,7.64 -6.23,0.42 -12.5,0.15 -18.74,0.15 -3.94,-0.02 -6.69,-3.16 -9.46,-5.51 -2.65,-2.33 -6.12,-4.58 -6.4,-8.45 -0.27,-4.32 -0.26,-8.68 -0.01,-13.01 0.32,-3.84 3.57,-6.37 6.3,-8.66 2.25,-1.73 4.2,-4.02 6.95,-4.96 z"
           style="opacity:1;fill:#ffaa00"
           id="path3480" />
        <path
           inkscape:connector-curvature="0"
           d="m 1133.28,24.18 c 5.23,-0.47 10.51,-0.06 15.77,-0.22 4.18,-0.32 8.5,1.9 10.52,5.61 2.24,3.76 1.23,8.32 1.77,12.46 0.72,5.98 0.78,12 0.68,18.02 -0.09,1.35 0.13,2.94 -1.13,3.83 -2.18,2.45 -5.58,0.68 -7.98,-0.44 -5.67,2.54 -11.96,1.34 -17.96,1.57 -5.45,0.16 -10.71,-4.42 -10.94,-9.94 -0.15,-2.32 -0.18,-4.67 0.1,-6.99 0.73,-5.13 5.7,-9.17 10.84,-9.09 5.67,-0.15 11.36,0.26 17.04,-0.1 0.06,-2.32 0.6,-5.75 -2.21,-6.69 -5.48,-0.67 -11.03,0.26 -16.5,-0.38 -3.15,-1.43 -3.16,-6.2 0,-7.64 m -0.25,25.87 c -0.15,2.33 -0.67,5.8 2.21,6.71 5.85,0.89 12.12,0.32 17.23,-2.88 -0.16,-2.11 -0.44,-4.24 -1.14,-6.25 -4.67,-1.24 -9.61,-0.5 -14.38,-0.61 -1.85,-0.23 -3.91,1.04 -3.92,3.03 z"
           style="opacity:1;fill:#ffaa00"
           id="path3482" />
      </g>
    </g>
  </g>
</svg>
