<?xml version="1.0" encoding="utf-8"?>
<svg width="1038pt" height="394pt" viewBox="0 0 1038 394" xmlns="http://www.w3.org/2000/svg">
  <g id="#000000ff">
    <path d=" M 503.36 1.57 C 551.08 -0.74 599.47 13.65 638.09 41.80 C 644.87 46.69 651.20 52.16 657.51 57.63 C 661.25 60.93 664.65 64.98 665.82 69.94 C 667.86 77.92 664.11 86.88 657.19 91.26 C 651.27 95.14 643.12 95.69 636.98 92.03 C 632.90 89.54 629.41 86.23 625.78 83.15 C 599.42 60.22 565.82 45.85 531.09 42.28 C 484.37 37.26 435.95 52.62 400.61 83.57 C 396.09 87.45 391.70 91.90 385.89 93.75 C 375.87 96.84 364.22 90.20 361.52 80.13 C 359.21 72.82 362.05 64.63 367.54 59.50 C 403.87 24.66 453.13 3.89 503.36 1.57 M 491.61 9.82 C 448.45 14.79 406.79 33.33 374.77 62.79 C 371.81 65.52 368.91 68.80 368.37 72.94 C 367.13 80.12 373.74 87.37 381.00 86.78 C 386.66 86.58 390.92 82.37 394.90 78.83 C 413.15 62.35 435.01 49.93 458.44 42.50 C 485.90 33.65 515.46 32.19 543.88 36.56 C 576.50 41.89 607.72 56.51 632.08 78.94 C 635.30 81.79 638.48 84.92 642.57 86.48 C 649.88 89.17 658.85 82.97 658.72 75.11 C 659.07 69.30 654.82 64.73 650.66 61.29 C 607.91 23.05 548.75 3.35 491.61 9.82 Z" style="fill: rgb(255, 170, 0); opacity: 1;"/>
    <path d=" M 499.46 63.71 C 543.55 59.52 589.23 76.09 620.11 107.89 C 624.57 112.43 625.79 119.32 624.59 125.41 C 622.16 137.39 607.16 144.91 596.34 138.59 C 591.28 135.93 587.40 131.62 583.00 128.07 C 566.56 114.56 546.11 105.96 524.92 103.84 C 494.30 100.63 462.33 110.76 439.69 131.76 C 435.26 135.81 430.22 139.85 424.05 140.56 C 415.21 141.87 406.34 135.99 403.13 127.85 C 400.95 122.60 401.59 116.37 404.49 111.51 C 407.37 106.61 411.77 102.90 415.96 99.16 C 439.16 78.98 468.84 66.43 499.46 63.71 M 499.11 71.19 C 469.88 74.10 441.81 86.48 419.62 105.67 C 415.73 109.09 411.42 112.62 409.73 117.70 C 407.84 124.20 412.39 131.55 418.95 133.02 C 424.46 134.57 429.67 131.03 433.51 127.44 C 449.35 112.12 469.80 101.58 491.53 97.80 C 500.27 96.24 509.17 96.11 518.03 96.14 C 545.09 96.20 571.71 107.32 591.49 125.66 C 594.92 128.66 598.48 131.89 602.98 133.12 C 610.47 134.68 618.55 127.76 617.66 120.03 C 617.11 113.72 611.69 109.60 607.28 105.74 C 577.77 80.48 537.91 67.06 499.11 71.19 Z" style="fill: rgb(255, 170, 0); opacity: 1;"/>
    <path d=" M 501.52 125.77 C 529.86 121.66 559.81 132.73 578.82 154.11 C 583.28 158.91 584.67 165.95 583.22 172.23 C 580.85 183.50 566.82 190.77 556.39 185.58 C 550.67 182.95 546.70 177.87 541.71 174.20 C 524.71 161.65 499.16 162.21 483.01 175.98 C 478.53 179.82 474.59 184.81 468.68 186.47 C 459.16 189.41 448.17 183.80 444.52 174.64 C 441.48 167.58 443.64 159.09 448.67 153.51 C 462.16 138.28 481.37 128.37 501.52 125.77 M 507.36 132.54 C 491.37 134.18 475.70 140.07 463.09 150.13 C 457.50 154.33 451.27 159.48 450.65 166.96 C 450.05 174.71 458.16 181.15 465.58 179.43 C 470.82 178.09 474.39 173.74 478.29 170.30 C 484.90 164.23 493.31 160.23 502.15 158.75 C 516.74 156.01 532.76 158.36 544.93 167.24 C 550.14 170.92 554.00 176.49 560.02 178.99 C 566.33 181.54 574.19 177.49 575.98 170.96 C 577.81 165.27 574.45 159.48 570.46 155.63 C 553.72 139.86 530.41 130.85 507.36 132.54 Z" style="fill: rgb(255, 170, 0); opacity: 1;"/>
    <path d=" M 508.39 189.50 C 517.00 185.84 528.46 192.43 528.84 201.97 C 528.97 222.65 528.71 243.34 528.95 264.01 C 529.18 271.33 530.69 279.75 525.79 285.96 C 521.22 292.03 511.95 293.55 505.65 289.35 C 501.41 286.73 498.42 282.00 498.56 276.93 C 498.48 252.61 498.52 228.29 498.54 203.98 C 498.38 197.69 502.64 191.82 508.39 189.50 M 510.36 196.41 C 507.53 197.80 505.61 200.83 505.77 204.01 C 505.65 227.33 505.76 250.65 505.71 273.97 C 505.72 276.57 505.80 279.43 507.62 281.49 C 509.84 284.51 514.41 285.85 517.65 283.65 C 521.24 281.44 522.39 276.97 522.23 273.00 C 522.02 253.65 522.69 234.29 521.71 214.96 C 521.57 210.68 521.85 206.39 521.49 202.12 C 520.93 197.21 514.68 193.99 510.36 196.41 Z" style="fill: rgb(255, 170, 0); opacity: 1;"/>
    <path d=" M 471.40 213.59 C 479.22 210.82 488.71 216.32 490.41 224.39 C 491.09 228.49 490.80 233.02 488.35 236.52 C 485.34 240.95 480.17 242.98 476.00 246.06 C 464.02 254.81 454.98 267.70 451.36 282.13 C 448.04 294.69 448.72 308.25 453.29 320.40 C 459.01 336.16 471.20 349.42 486.40 356.50 C 501.65 363.99 519.95 364.59 535.85 358.75 C 552.00 352.91 565.63 340.35 572.57 324.63 C 576.36 315.63 578.76 305.89 578.42 296.08 C 577.53 276.39 567.53 256.99 551.16 245.79 C 546.36 242.36 540.29 239.70 537.86 233.93 C 534.68 227.02 538.08 218.22 544.68 214.69 C 549.18 212.29 554.87 212.29 559.36 214.73 C 588.13 229.72 607.35 260.74 609.03 293.01 C 610.08 312.89 604.67 333.11 593.79 349.82 C 584.35 364.51 570.80 376.52 555.09 384.16 C 525.38 398.53 488.02 396.22 460.82 377.28 C 446.52 367.68 434.61 354.36 427.50 338.61 C 417.13 316.14 415.88 289.59 424.23 266.28 C 432.37 243.61 449.02 223.27 471.40 213.59 M 474.35 220.43 C 470.63 221.75 467.29 223.96 463.98 226.06 C 436.81 244.15 421.64 278.56 426.72 310.82 C 429.59 330.34 439.21 348.83 453.67 362.27 C 466.71 374.42 483.45 382.69 501.13 385.22 C 520.88 388.15 541.58 384.00 558.72 373.76 C 573.37 365.07 585.39 352.04 592.88 336.74 C 601.06 320.21 603.86 301.03 600.50 282.88 C 595.75 256.83 578.94 232.79 555.09 220.87 C 549.59 217.86 542.14 224.03 544.09 229.97 C 545.68 234.17 550.02 236.18 553.49 238.58 C 576.18 253.10 588.95 281.47 584.92 308.08 C 582.44 326.37 572.53 343.51 557.92 354.80 C 545.44 364.43 529.77 370.16 513.93 369.80 C 498.62 370.12 483.20 365.27 471.01 355.96 C 458.37 346.21 448.30 332.54 444.36 316.94 C 440.61 301.21 441.51 284.13 448.17 269.29 C 453.73 256.76 462.92 245.83 474.45 238.39 C 477.55 236.24 481.13 234.40 483.09 231.04 C 485.68 225.81 479.99 218.86 474.35 220.43 Z" style="fill: rgb(255, 170, 0); opacity: 1;"/>
    <path d=" M 4.28 246.03 C 16.42 245.97 28.57 245.96 40.71 246.03 C 41.78 247.12 42.86 248.21 43.95 249.29 C 44.02 257.08 44.01 264.88 43.95 272.68 C 42.86 273.76 41.78 274.85 40.70 275.95 C 28.56 276.02 16.42 276.01 4.28 275.96 C 3.20 274.85 2.12 273.76 1.03 272.68 C 0.97 264.88 0.97 257.09 1.03 249.30 C 2.12 248.21 3.20 247.12 4.28 246.03 M 9.00 253.00 C 8.99 258.33 8.99 263.65 9.00 268.98 C 17.99 268.99 26.99 268.99 35.98 268.98 C 35.99 263.65 35.99 258.33 35.98 253.00 C 26.99 252.99 17.99 252.99 9.00 253.00 Z" style="fill: rgb(255, 255, 255); opacity: 1;"/>
    <path d=" M 63.96 248.88 C 66.97 247.07 70.39 245.84 73.94 245.96 C 87.62 246.01 101.30 245.98 114.99 245.99 C 114.99 255.99 114.99 265.99 114.99 275.99 C 103.99 276.11 92.98 275.76 81.98 276.14 C 80.46 275.99 79.92 277.72 80.08 278.94 C 79.82 301.18 80.12 323.44 79.95 345.69 C 78.85 346.77 77.75 347.85 76.67 348.95 C 67.88 349.01 59.09 349.02 50.30 348.95 C 49.22 347.85 48.13 346.76 47.03 345.68 C 46.96 322.77 46.96 299.86 47.00 276.95 C 47.05 273.36 46.70 269.60 48.19 266.23 C 51.18 258.81 57.16 252.90 63.96 248.88 M 54.98 276.96 C 54.99 298.63 54.98 320.31 55.00 341.98 C 60.66 341.99 66.32 341.99 71.98 341.98 C 72.01 320.30 71.93 298.62 72.02 276.94 C 71.87 273.16 74.90 268.97 78.91 269.03 C 88.26 268.88 97.62 269.05 106.98 268.98 C 106.99 263.65 106.99 258.33 106.98 253.00 C 98.63 252.98 90.27 253.02 81.92 252.95 C 68.32 251.51 54.86 263.17 54.98 276.96 Z" style="fill: rgb(255, 255, 255); opacity: 1;"/>
    <path d=" M 151.94 247.77 C 156.17 245.15 161.26 246.07 165.97 245.98 C 191.99 245.99 218.01 245.99 244.03 245.97 C 246.25 245.76 248.18 246.90 250.04 247.93 C 249.97 256.68 249.95 265.43 250.05 274.18 C 245.83 276.84 240.70 275.90 235.99 276.00 C 209.98 275.99 183.98 275.99 157.97 276.01 C 155.74 276.23 153.81 275.08 151.95 274.05 C 152.01 265.29 152.02 256.53 151.94 247.77 M 160.00 253.00 C 159.99 258.33 159.99 263.66 160.00 268.98 C 187.33 268.99 214.65 268.99 241.98 268.98 C 241.99 263.66 241.99 258.33 241.98 253.00 C 214.65 252.99 187.33 252.99 160.00 253.00 Z" style="fill: rgb(255, 255, 255); opacity: 1;"/>
    <path d=" M 305.65 259.63 C 315.45 250.75 328.73 245.20 342.06 245.98 C 353.38 245.96 364.70 245.99 376.02 245.97 C 378.24 245.76 380.17 246.92 382.04 247.93 C 381.95 257.28 382.01 266.64 381.99 275.99 C 368.31 276.05 354.63 275.89 340.96 276.06 C 329.23 276.44 320.69 288.92 322.25 300.08 C 323.22 309.93 331.73 319.20 342.00 318.99 C 355.33 319.01 368.66 318.97 381.99 318.99 C 382.01 328.34 381.95 337.69 382.04 347.04 C 380.17 348.03 378.26 349.22 376.05 349.01 C 362.00 348.85 347.95 349.27 333.92 348.78 C 322.36 346.96 311.16 341.51 303.19 332.84 C 294.88 323.29 289.46 310.81 289.89 298.01 C 289.28 283.73 295.50 269.54 305.65 259.63 M 315.98 261.93 C 307.52 268.62 300.82 278.16 299.06 288.95 C 296.29 301.69 299.83 315.60 308.31 325.51 C 316.20 335.89 329.08 341.52 341.94 341.93 C 352.62 342.09 363.30 341.93 373.98 341.98 C 373.99 336.65 373.99 331.33 373.98 326.00 C 362.31 325.94 350.63 326.08 338.96 325.95 C 324.53 325.36 312.57 311.29 313.90 296.97 C 313.02 282.64 325.53 269.01 339.93 268.99 C 351.28 268.95 362.63 269.01 373.98 268.98 C 373.99 263.66 373.99 258.33 373.98 253.00 C 364.00 253.00 354.01 252.99 344.02 252.97 C 334.09 253.16 323.88 255.66 315.98 261.93 Z" style="fill: rgb(255, 255, 255); opacity: 1;"/>
    <path d=" M 643.26 246.02 C 648.09 245.96 652.93 245.97 657.76 246.00 C 667.72 256.80 677.45 267.80 687.34 278.65 C 690.29 281.74 693.28 284.85 695.36 288.63 C 696.49 288.03 697.51 287.00 698.88 287.05 C 704.57 286.80 710.28 287.07 715.98 286.99 C 716.01 274.42 715.93 261.86 716.02 249.30 C 717.10 248.21 718.18 247.11 719.25 246.01 C 727.74 245.97 736.22 245.96 744.71 246.01 C 745.78 247.11 746.86 248.21 747.95 249.31 C 748.02 281.43 748.01 313.55 747.95 345.67 C 746.85 346.76 745.77 347.86 744.71 348.97 C 739.88 349.00 735.05 349.00 730.22 348.99 C 721.25 338.32 711.74 328.11 702.66 317.54 C 699.45 313.99 695.84 310.70 693.66 306.37 C 692.48 306.92 691.45 307.94 690.10 307.93 C 684.40 308.17 678.70 307.90 673.00 307.99 C 672.96 320.55 673.04 333.11 672.95 345.67 C 671.84 346.76 670.74 347.85 669.66 348.95 C 660.88 349.01 652.09 349.01 643.31 348.95 C 642.22 347.86 641.12 346.77 640.03 345.69 C 639.96 313.56 639.96 281.42 640.03 249.28 C 641.11 248.20 642.19 247.12 643.26 246.02 M 648.00 252.95 C 647.99 282.63 647.99 312.31 648.00 341.98 C 653.66 341.99 659.32 341.99 664.98 341.98 C 664.99 328.32 664.99 314.66 665.00 300.99 C 672.28 301.00 679.57 300.97 686.86 301.00 C 686.70 296.97 688.28 292.10 685.29 288.76 C 674.78 276.83 664.09 265.06 653.66 253.06 C 651.77 253.03 649.88 252.99 648.00 252.95 M 724.00 253.00 C 723.99 266.66 723.99 280.32 723.99 293.99 C 716.69 293.99 709.39 294.00 702.10 294.00 C 702.23 298.05 700.70 302.93 703.72 306.28 C 713.58 317.73 723.57 329.08 733.39 340.57 C 734.88 342.68 737.78 341.76 739.98 342.10 C 739.99 312.40 739.98 282.70 739.99 253.00 C 734.65 252.99 729.32 252.99 724.00 253.00 Z" style="fill: rgb(255, 255, 255); opacity: 1;"/>
    <path d=" M 786.95 247.91 C 788.81 246.86 790.76 245.76 793.00 245.97 C 821.70 246.00 850.41 245.99 879.11 245.97 C 881.29 245.77 883.19 246.93 885.04 247.92 C 884.96 256.63 884.96 265.34 885.04 274.04 C 883.15 275.07 881.20 276.23 878.97 276.01 C 850.29 275.98 821.62 275.98 792.94 276.01 C 790.72 276.22 788.80 275.08 786.95 274.06 C 787.01 265.34 787.01 256.63 786.95 247.91 M 795.00 253.00 C 794.98 258.33 794.98 263.66 795.00 268.98 C 822.33 268.99 849.65 268.99 876.98 268.98 C 876.98 263.66 876.99 258.33 876.98 253.00 C 849.65 252.99 822.33 252.99 795.00 253.00 Z" style="fill: rgb(255, 255, 255); opacity: 1;"/>
    <path d=" M 927.26 246.03 C 939.41 245.97 951.55 245.96 963.70 246.03 C 964.77 247.13 965.85 248.22 966.95 249.31 C 967.02 257.09 967.01 264.88 966.95 272.66 C 965.85 273.75 964.76 274.85 963.69 275.95 C 951.55 276.02 939.41 276.02 927.27 275.95 C 926.19 274.86 925.11 273.78 924.03 272.71 C 923.96 264.90 923.96 257.09 924.03 249.28 C 925.10 248.20 926.18 247.12 927.26 246.03 M 932.00 253.00 C 931.98 258.32 931.98 263.65 932.00 268.98 C 940.99 268.99 949.99 268.99 958.98 268.98 C 958.98 263.65 958.98 258.33 958.98 253.00 C 949.99 252.99 940.99 252.99 932.00 253.00 Z" style="fill: rgb(255, 255, 255); opacity: 1;"/>
    <path d=" M 974.33 260.38 C 979.29 253.59 986.43 247.40 994.95 246.08 C 1009.29 245.81 1023.65 246.09 1038.00 245.99 L 1038.00 275.98 C 1026.68 276.18 1015.33 275.63 1004.03 276.21 C 1002.13 278.21 1003.29 281.49 1002.95 284.02 C 1003.03 304.57 1003.01 325.13 1002.95 345.68 C 1001.83 346.76 1000.74 347.85 999.66 348.95 C 990.87 349.01 982.09 349.01 973.30 348.96 C 972.21 347.85 971.12 346.76 970.03 345.68 C 969.96 321.45 969.96 297.21 970.00 272.98 C 969.87 268.40 971.80 264.08 974.33 260.38 M 977.99 276.99 C 978.00 298.65 978.00 320.32 978.00 341.98 C 983.66 341.99 989.32 341.99 994.98 341.98 C 995.01 320.32 994.93 298.65 995.02 276.98 C 994.85 273.21 997.85 269.01 1001.86 269.03 C 1011.23 268.88 1020.61 269.06 1029.98 268.98 C 1029.98 263.65 1029.98 258.33 1029.98 253.00 C 1019.64 253.11 1009.28 252.74 998.96 253.17 C 987.67 254.84 977.77 265.34 977.99 276.99 Z" style="fill: rgb(255, 255, 255); opacity: 1;"/>
    <path d=" M 151.93 283.80 C 155.83 281.30 160.55 281.99 164.94 281.97 C 190.11 282.03 215.29 281.93 240.47 282.02 C 240.77 290.11 236.96 297.75 231.71 303.68 C 225.44 309.67 216.73 313.23 208.03 313.03 C 200.35 312.99 192.67 312.98 184.99 313.00 C 184.99 314.99 184.99 316.98 185.00 318.98 C 205.59 319.00 226.18 318.96 246.77 319.00 C 247.82 320.10 248.88 321.19 249.95 322.28 C 250.05 330.53 249.93 338.79 250.04 347.04 C 248.17 348.01 246.27 349.18 244.07 349.00 C 218.07 348.98 192.07 349.00 166.06 349.00 C 161.33 348.89 156.19 349.84 151.94 347.19 C 152.02 326.06 152.03 304.93 151.93 283.80 M 160.00 289.00 C 159.99 306.66 159.99 324.32 160.00 341.99 C 187.33 341.99 214.65 341.99 241.98 341.98 C 241.99 336.65 241.99 331.33 241.98 326.00 C 219.98 325.99 197.99 325.99 175.99 325.99 C 175.99 319.32 175.99 312.66 175.99 305.99 C 186.57 305.81 197.18 306.34 207.75 305.73 C 217.49 305.10 226.42 298.46 229.41 289.10 C 206.27 288.86 183.13 289.05 160.00 289.00 Z" style="fill: rgb(255, 255, 255); opacity: 1;"/>
    <path d=" M 786.95 283.92 C 788.81 282.88 790.76 281.75 793.00 281.97 C 820.49 282.03 847.98 281.95 875.47 282.02 C 875.75 290.35 871.77 298.26 866.18 304.21 C 859.91 309.83 851.51 313.24 843.05 313.03 C 835.36 312.99 827.68 312.98 819.99 313.00 C 819.99 314.99 819.99 316.98 820.00 318.98 C 840.58 319.00 861.17 318.96 881.76 319.00 C 882.81 320.11 883.87 321.20 884.96 322.29 C 885.05 330.54 884.92 338.80 885.03 347.05 C 883.14 348.03 881.20 349.19 878.98 349.00 C 850.31 348.98 821.64 349.00 792.97 349.01 C 790.79 349.08 788.83 348.11 786.94 347.20 C 787.02 326.11 787.01 305.01 786.95 283.92 M 795.00 289.00 C 794.99 306.66 794.99 324.32 795.00 341.99 C 822.33 341.99 849.65 341.99 876.98 341.98 C 876.99 336.66 876.99 331.33 876.98 326.00 C 854.98 325.99 832.99 325.99 810.99 325.99 C 810.98 319.32 810.98 312.66 810.99 305.99 C 821.95 305.72 832.97 306.54 843.90 305.56 C 853.24 304.65 861.52 298.03 864.40 289.10 C 841.27 288.86 818.13 289.05 795.00 289.00 Z" style="fill: rgb(255, 255, 255); opacity: 1;"/>
  </g>
</svg>